<svg version="1.1" id="Layer_1" xmlns="http://www.w3.org/2000/svg" xmlns:xlink="http://www.w3.org/1999/xlink" x="0px" y="0px"
	 width="100%" viewBox="0 0 1088 350" enable-background="new 0 0 1088 350" xml:space="preserve">
<path fill="#FFFFFF" opacity="1.000000" stroke="none" 
	d="
M711.000000,351.000000 
	C474.000000,351.000000 237.500000,351.000000 1.000000,351.000000 
	C1.000000,234.333328 1.000000,117.666664 1.000000,1.000000 
	C363.666656,1.000000 726.333313,1.000000 1089.000000,1.000000 
	C1089.000000,117.666664 1089.000000,234.333328 1089.000000,351.000000 
	C963.166687,351.000000 837.333313,351.000000 711.000000,351.000000 
M26.451344,210.499939 
	C26.452526,226.498947 26.511122,242.498245 26.424700,258.496796 
	C26.393160,264.335510 28.881664,268.327271 34.195107,270.670929 
	C49.119347,277.253571 63.999805,283.936401 78.954659,290.448517 
	C110.845909,304.335724 142.890945,317.878540 174.607635,332.152100 
	C183.139206,335.991608 190.123840,336.532654 199.028198,332.528473 
	C245.009323,311.851379 291.283447,291.818787 337.623688,271.954102 
	C345.675659,268.502441 348.562897,263.223663 348.548645,255.028458 
	C348.458344,203.032516 348.508759,151.036346 348.498169,99.040245 
	C348.495972,88.352005 346.447937,85.567932 336.594086,81.340721 
	C315.336243,72.221321 294.131073,62.978828 272.922272,53.745487 
	C246.229980,42.124878 219.611847,30.330006 192.797546,18.998796 
	C189.680679,17.681673 185.052795,17.714006 181.918762,19.021820 
	C160.111786,28.121685 138.514725,37.724533 116.849648,47.164448 
	C89.539589,59.063999 62.250576,71.012306 34.901768,82.822136 
	C28.731966,85.486397 26.342010,89.826859 26.372309,96.508797 
	C26.543091,134.171860 26.453335,171.836090 26.451344,210.499939 
M378.424072,112.965195 
	C390.911285,101.533386 394.983154,87.725281 389.890045,71.484535 
	C385.109039,56.238777 373.929291,47.591866 358.830902,45.450050 
	C342.175720,43.087395 328.682648,49.761292 319.523956,64.315002 
	C317.734009,67.159332 317.861603,69.111038 321.270111,70.520767 
	C329.551758,73.945969 337.659332,77.825882 346.059784,80.917290 
	C351.176636,82.800308 353.358368,85.555588 353.123627,91.107307 
	C352.744415,100.075554 353.124329,109.073387 352.974060,118.055222 
	C352.922089,121.162422 354.082703,122.229233 357.070801,121.972168 
	C364.915741,121.297249 371.837982,118.442093 378.424072,112.965195 
M1063.006836,136.508591 
	C1063.006836,132.086197 1063.006836,127.663803 1063.006836,123.400238 
	C1059.899536,123.400238 1057.510132,123.400238 1054.767578,123.400238 
	C1054.767578,131.080185 1054.767578,138.356812 1054.767578,146.067902 
	C1052.562988,145.719467 1050.791138,145.405365 1049.009399,145.163223 
	C1035.843140,143.373886 1026.356934,148.198212 1024.384155,158.844025 
	C1023.232422,165.059402 1023.389709,171.756149 1024.277344,178.050247 
	C1025.388428,185.928406 1030.695557,191.062103 1038.756348,191.494263 
	C1045.298218,191.845016 1051.915283,190.567078 1058.510376,190.246170 
	C1062.172974,190.067978 1063.131226,188.461288 1063.088745,184.906143 
	C1062.899902,169.107712 1063.006836,153.305756 1063.006836,136.508591 
M482.200531,161.409851 
	C480.420868,150.846619 474.912720,145.203278 464.657593,145.168915 
	C457.150940,145.143753 449.639191,146.623444 442.358704,147.407730 
	C442.358704,168.330536 442.358704,188.054153 442.358704,207.585220 
	C445.127045,207.585220 447.518982,207.585220 450.318817,207.585220 
	C450.318817,201.906738 450.318817,196.649597 450.318817,192.004730 
	C455.219818,192.004730 459.694031,192.143814 464.156769,191.976318 
	C474.027161,191.605865 480.361420,186.720947 481.835327,177.593826 
	C482.643494,172.589249 482.197296,167.382111 482.200531,161.409851 
M689.991943,164.502747 
	C689.991943,178.910919 689.991943,193.319077 689.991943,207.614197 
	C693.075012,207.614197 695.464722,207.614197 698.246338,207.614197 
	C698.246338,201.955399 698.246338,196.686615 698.246338,192.005035 
	C703.126953,192.005035 707.595947,192.131348 712.055359,191.978882 
	C721.484192,191.656479 727.785156,187.646805 729.271545,179.122925 
	C730.466736,172.268417 730.362305,164.923813 729.338501,158.018509 
	C728.273254,150.834732 723.015686,146.562698 715.633850,145.431885 
	C706.891541,144.092667 698.534729,145.929703 689.991943,148.333084 
	C689.991943,153.550003 689.991943,158.527496 689.991943,164.502747 
M818.082458,141.500504 
	C818.082458,135.409866 818.082458,129.319214 818.082458,123.234299 
	C815.052429,123.234299 812.779785,123.234299 810.293030,123.234299 
	C810.293030,145.854156 810.293030,168.235748 810.293030,190.653168 
	C812.992920,190.653168 815.379578,190.653168 818.082458,190.653168 
	C818.082458,188.331818 818.082397,186.353287 818.082520,184.374771 
	C818.082703,182.375778 818.048889,180.376053 818.091675,178.377975 
	C818.150635,175.622177 823.361389,168.574448 825.752014,169.063644 
	C828.175171,169.559494 830.834656,171.525497 832.277161,173.615967 
	C834.894836,177.409409 836.795349,181.720749 838.796875,185.910721 
	C841.601685,191.782059 842.142700,192.080933 849.293884,190.056244 
	C846.981079,185.055878 845.180908,179.793777 842.263855,175.248413 
	C839.430115,170.832840 835.450684,167.152496 831.593201,162.710358 
	C836.657715,157.672226 842.356323,152.003311 848.005371,146.383636 
	C842.028442,144.499588 837.903992,147.309219 833.971497,151.349899 
	C829.156677,156.297089 823.998169,160.909805 818.082520,166.527283 
	C818.082520,157.673523 818.082520,150.086945 818.082458,141.500504 
M972.634155,134.011459 
	C980.359070,134.011459 988.084045,134.011459 997.022278,134.011459 
	C990.643982,140.963333 985.075195,146.836166 979.775635,152.942612 
	C978.395813,154.532578 977.855713,156.851227 976.663269,159.406586 
	C981.362000,159.651642 984.684021,159.659225 987.965393,160.028381 
	C996.411377,160.978516 1000.512817,165.502991 1000.296753,173.379562 
	C1000.069885,181.645172 995.813660,186.488266 987.397034,186.856323 
	C981.802429,187.100998 976.139465,186.372101 970.542542,185.756607 
	C967.124268,185.380707 965.828247,186.351074 966.753845,190.099411 
	C976.573242,191.991684 986.430542,193.198853 996.301697,190.464035 
	C1004.714050,188.133377 1009.213562,181.498535 1008.961426,172.407608 
	C1008.729370,164.037552 1003.839478,158.025040 995.518982,156.016357 
	C993.159485,155.446732 990.741699,155.118546 987.595764,154.541092 
	C993.723206,147.899933 999.517395,141.789413 1005.075989,135.471619 
	C1006.404053,133.962173 1006.946777,131.761810 1008.126587,129.304611 
	C993.669434,129.304611 980.442139,129.304611 967.123779,129.304611 
	C967.123779,130.899551 967.123779,132.177887 967.123779,133.758270 
	C968.757996,133.849213 970.215454,133.930313 972.634155,134.011459 
M511.612122,192.013840 
	C527.742249,192.001022 533.907837,186.310623 534.931641,170.254349 
	C535.098816,167.633011 534.759399,164.947968 534.391113,162.329361 
	C532.768616,150.791245 526.672424,145.309387 515.095886,145.021637 
	C512.288574,144.951874 509.449829,145.134705 506.662018,145.488556 
	C498.545685,146.518799 493.788452,151.526901 492.196472,159.191269 
	C491.266785,163.667267 491.017517,168.450211 491.429352,173.007675 
	C492.583344,185.777725 497.856628,190.737259 511.612122,192.013840 
M885.440552,169.423889 
	C888.532898,169.423889 891.625305,169.423889 894.632446,169.423889 
	C896.080933,154.453140 891.177795,146.850571 879.506836,145.162338 
	C867.162842,143.376770 858.560364,147.867065 855.583557,157.856537 
	C853.498047,164.854767 853.465515,171.958694 855.441223,179.000412 
	C857.379700,185.909256 861.888245,190.445404 869.076355,191.015503 
	C875.969238,191.562180 882.945007,191.163300 889.881165,191.024643 
	C893.305054,190.956207 894.230164,189.195267 892.629944,186.172470 
	C886.915344,186.465286 881.284485,187.255463 875.721313,186.920517 
	C867.518188,186.426605 863.675964,182.060791 862.670471,173.903915 
	C862.277039,170.712891 863.018127,169.272415 866.499268,169.377060 
	C872.480835,169.556900 878.471924,169.424347 885.440552,169.423889 
M579.081360,186.346588 
	C579.081360,174.762695 579.081360,163.178802 579.081360,151.050339 
	C584.143860,150.617508 588.580017,149.751038 592.959961,149.976913 
	C599.675781,150.323257 602.749390,153.898804 602.891113,160.628128 
	C603.010193,166.280548 602.917847,171.937424 602.918457,177.592316 
	C602.918945,182.006149 602.918579,186.419968 602.918579,190.740585 
	C605.997986,190.740585 608.268127,190.740585 610.856812,190.740585 
	C610.856812,179.882950 611.243225,169.263489 610.728882,158.687851 
	C610.348877,150.874359 606.484680,147.412064 598.654175,145.750763 
	C589.238953,143.753235 580.272644,145.953629 571.322815,148.244568 
	C571.322815,162.579330 571.322815,176.631821 571.322815,191.226273 
	C574.214172,189.748184 579.183533,194.107620 579.081360,186.346588 
M636.085693,155.616333 
	C636.166504,154.018967 636.247314,152.421600 636.322632,150.932159 
	C649.837463,149.013062 649.837463,149.013062 649.131104,145.793304 
	C644.980042,145.793304 640.722778,145.793304 635.916870,145.793304 
	C635.916870,141.464111 635.916870,137.565552 635.916870,133.868896 
	C630.925354,132.379593 628.778625,133.802933 628.862183,138.635147 
	C628.903564,141.026703 628.231323,143.430588 627.884888,145.808578 
	C625.227600,145.957535 623.122314,146.075546 620.879028,146.201294 
	C619.666504,153.138611 626.042603,148.753937 627.992798,151.789124 
	C627.992798,159.796585 627.992432,168.436890 627.992920,177.077194 
	C627.993530,189.242371 631.810913,192.845505 643.981995,191.955292 
	C646.573364,191.765762 649.130249,191.105484 651.545349,190.689240 
	C652.372253,185.736160 650.254272,185.604385 646.743591,186.435120 
	C638.327942,188.426529 636.093994,186.561554 636.086792,178.072662 
	C636.080750,170.914307 636.085693,163.755951 636.085693,155.616333 
M796.508057,150.367523 
	C796.854065,149.036926 797.200134,147.706329 797.712952,145.734116 
	C790.344055,145.734116 783.700806,145.248001 777.164551,145.875732 
	C771.066223,146.461426 766.913696,150.447159 764.978149,156.306702 
	C762.288635,164.448410 762.279785,172.675430 765.038025,180.808701 
	C766.818115,186.057800 770.513672,190.124161 775.877197,190.827942 
	C782.372620,191.680222 789.066406,191.152344 795.664062,190.924149 
	C796.467346,190.896378 797.206970,189.026733 797.976074,188.010696 
	C796.864685,187.350342 795.734436,186.106689 794.645447,186.141800 
	C791.682190,186.237366 788.745972,187.132828 785.781555,187.244064 
	C778.760559,187.507584 773.705933,184.288345 772.677673,177.573273 
	C771.765564,171.616959 771.775269,165.292282 772.712036,159.340149 
	C773.774719,152.588181 778.820984,149.457611 785.854553,149.739883 
	C789.166931,149.872803 792.466858,150.316620 796.508057,150.367523 
M909.552856,191.005585 
	C910.976440,190.902298 912.400024,190.799011 914.084656,190.676788 
	C914.084656,181.655396 914.084595,173.038788 914.084595,164.422180 
	C914.084595,151.117447 914.072327,150.980896 927.439453,149.771973 
	C931.099365,149.440964 930.946167,147.881042 929.981384,144.391449 
	C921.943726,145.489197 914.034424,146.569427 905.996338,147.667236 
	C905.996338,161.734848 905.937683,174.841522 906.109802,187.945114 
	C906.123352,188.974625 907.745056,189.983032 909.552856,191.005585 
M555.076599,168.500000 
	C555.076599,161.085770 555.076599,153.671555 555.076599,146.411316 
	C551.942932,146.411316 549.566833,146.411316 547.268799,146.411316 
	C547.268799,161.399216 547.268799,175.976456 547.268799,190.680374 
	C549.927612,190.680374 552.312317,190.680374 555.076660,190.680374 
	C555.076660,183.411179 555.076660,176.455536 555.076599,168.500000 
M751.076599,178.488434 
	C751.076599,167.747864 751.076599,157.007309 751.076599,146.408905 
	C747.947937,146.408905 745.571533,146.408905 743.267578,146.408905 
	C743.267578,161.395172 743.267578,175.973022 743.267578,190.681488 
	C745.927002,190.681488 748.310120,190.681488 751.076660,190.681488 
	C751.076660,186.740372 751.076660,183.111053 751.076599,178.488434 
M669.424683,168.015121 
	C672.023315,168.015121 674.621948,168.015121 677.629333,168.015121 
	C677.516907,166.020996 677.439453,164.646774 677.362732,163.286331 
	C668.539368,163.286331 660.158752,163.286331 651.381592,163.286331 
	C651.481140,164.985367 651.561646,166.359650 651.658630,168.015137 
	C657.534546,168.015137 662.989807,168.015137 669.424683,168.015121 
M945.478516,168.015121 
	C949.072693,168.015121 952.666931,168.015121 956.661499,168.015121 
	C956.526001,165.990417 956.434082,164.615982 956.345886,163.297928 
	C947.513489,163.297928 939.133362,163.297928 930.357178,163.297928 
	C930.473511,165.013855 930.566589,166.387329 930.676941,168.015137 
	C935.565002,168.015137 940.027466,168.015137 945.478516,168.015121 
M752.045532,131.810104 
	C752.318237,131.212585 752.855957,130.599045 752.820923,130.020142 
	C752.579773,126.032539 749.575073,125.539841 746.744446,126.144348 
	C745.021545,126.512283 742.412720,128.311310 742.316895,129.622070 
	C742.076050,132.919159 744.954773,133.307007 747.631775,133.070938 
	C748.915283,132.957779 750.177734,132.606155 752.045532,131.810104 
M549.873047,126.017159 
	C548.652588,127.487938 547.432129,128.958725 546.211609,130.429504 
	C547.466553,131.314575 548.765076,132.982300 549.967102,132.915390 
	C552.199158,132.791138 554.427795,131.765152 556.495422,130.775223 
	C556.711304,130.671829 556.239624,127.727203 555.367432,127.097244 
	C554.167175,126.230408 552.280640,126.313728 549.873047,126.017159 
z"/>
<path fill="#6E99C0" opacity="1.000000" stroke="none" 
	d="
M26.451874,209.999939 
	C26.453335,171.836090 26.543091,134.171860 26.372309,96.508797 
	C26.342010,89.826859 28.731966,85.486397 34.901768,82.822136 
	C62.250576,71.012306 89.539589,59.063999 116.849648,47.164448 
	C138.514725,37.724533 160.111786,28.121685 181.918762,19.021820 
	C185.052795,17.714006 189.680679,17.681673 192.797546,18.998796 
	C219.611847,30.330006 246.229980,42.124878 272.922272,53.745487 
	C294.131073,62.978828 315.336243,72.221321 336.594086,81.340721 
	C346.447937,85.567932 348.495972,88.352005 348.498169,99.040245 
	C348.508759,151.036346 348.458344,203.032516 348.548645,255.028458 
	C348.562897,263.223663 345.675659,268.502441 337.623688,271.954102 
	C291.283447,291.818787 245.009323,311.851379 199.028198,332.528473 
	C190.123840,336.532654 183.139206,335.991608 174.607635,332.152100 
	C142.890945,317.878540 110.845909,304.335724 78.954659,290.448517 
	C63.999805,283.936401 49.119347,277.253571 34.195107,270.670929 
	C28.881664,268.327271 26.393160,264.335510 26.424700,258.496796 
	C26.511122,242.498245 26.452526,226.498947 26.451874,209.999939 
M80.834404,124.629181 
	C70.581940,120.173073 60.329468,115.716965 48.895592,110.747368 
	C48.895592,114.118851 48.895603,115.888504 48.895592,117.658157 
	C48.895256,160.620209 48.976967,203.582626 48.780766,246.543777 
	C48.758625,251.391144 50.572853,253.675903 54.771751,255.493591 
	C91.402100,271.351013 127.957222,287.382111 164.556320,303.311890 
	C168.086594,304.848450 171.763351,306.048462 176.236267,307.729492 
	C176.236267,304.881470 176.236313,303.253479 176.236282,301.625519 
	C176.235504,258.330444 176.167847,215.035095 176.340179,171.740692 
	C176.356918,167.534698 174.923599,165.504410 171.226456,163.907379 
	C141.299759,150.980225 111.438805,137.900894 80.834404,124.629181 
M197.986130,184.502045 
	C197.986130,225.244003 197.986130,265.985962 197.986130,307.577942 
	C200.621826,306.768494 202.357559,306.412537 203.947464,305.721252 
	C242.407532,288.998260 280.808289,272.137299 319.354462,255.615616 
	C324.209351,253.534729 325.462494,250.898834 325.440308,245.920776 
	C325.251099,203.430862 325.336853,160.939743 325.318054,118.448990 
	C325.317139,116.373909 325.109039,114.298935 324.959839,111.524666 
	C322.860962,112.243729 321.472778,112.614395 320.169800,113.180984 
	C281.863098,129.838348 243.626205,146.659286 205.198853,163.033234 
	C199.452225,165.481873 197.045303,168.435486 197.913147,174.515579 
	C198.332703,177.455063 197.985916,180.503952 197.986130,184.502045 
M129.539856,66.013542 
	C108.882324,74.928329 88.224785,83.843124 66.127144,93.379402 
	C69.919838,95.366180 72.147278,96.696037 74.502060,97.738167 
	C84.394661,102.116196 94.322639,106.414352 104.242577,110.730469 
	C130.343521,122.086899 156.403351,133.540604 182.615860,144.633514 
	C185.286499,145.763702 189.295547,145.680740 191.982971,144.527802 
	C229.152679,128.581604 266.202637,112.356201 303.263550,96.157112 
	C304.467804,95.630745 305.477264,94.658638 307.216034,93.450737 
	C305.242889,92.313950 304.185333,91.561165 303.020721,91.054504 
	C265.779785,74.853119 228.549744,58.625946 191.226639,42.615845 
	C188.953003,41.640553 185.565079,41.556580 183.311447,42.511383 
	C165.534027,50.043213 147.906418,57.928707 129.539856,66.013542 
z"/>
<path fill="#F4CE88" opacity="1.000000" stroke="none" 
	d="
M378.166992,113.214722 
	C371.837982,118.442093 364.915741,121.297249 357.070801,121.972168 
	C354.082703,122.229233 352.922089,121.162422 352.974060,118.055222 
	C353.124329,109.073387 352.744415,100.075554 353.123627,91.107307 
	C353.358368,85.555588 351.176636,82.800308 346.059784,80.917290 
	C337.659332,77.825882 329.551758,73.945969 321.270111,70.520767 
	C317.861603,69.111038 317.734009,67.159332 319.523956,64.315002 
	C328.682648,49.761292 342.175720,43.087395 358.830902,45.450050 
	C373.929291,47.591866 385.109039,56.238777 389.890045,71.484535 
	C394.983154,87.725281 390.911285,101.533386 378.166992,113.214722 
z"/>
<path fill="#828282" opacity="1.000000" stroke="none" 
	d="
M1063.006836,137.006836 
	C1063.006836,153.305756 1062.899902,169.107712 1063.088745,184.906143 
	C1063.131226,188.461288 1062.172974,190.067978 1058.510376,190.246170 
	C1051.915283,190.567078 1045.298218,191.845016 1038.756348,191.494263 
	C1030.695557,191.062103 1025.388428,185.928406 1024.277344,178.050247 
	C1023.389709,171.756149 1023.232422,165.059402 1024.384155,158.844025 
	C1026.356934,148.198212 1035.843140,143.373886 1049.009399,145.163223 
	C1050.791138,145.405365 1052.562988,145.719467 1054.767578,146.067902 
	C1054.767578,138.356812 1054.767578,131.080185 1054.767578,123.400238 
	C1057.510132,123.400238 1059.899536,123.400238 1063.006836,123.400238 
	C1063.006836,127.663803 1063.006836,132.086197 1063.006836,137.006836 
M1046.391846,149.939011 
	C1038.687622,149.484131 1033.836792,152.501877 1032.442993,159.684601 
	C1031.542603,164.324448 1031.266113,169.300934 1031.871948,173.975983 
	C1033.519165,186.686325 1043.055786,191.184387 1054.923584,185.056961 
	C1054.923584,176.197845 1054.923950,167.215530 1054.923218,158.233231 
	C1054.922607,150.862915 1054.922119,150.862915 1046.391846,149.939011 
z"/>
<path fill="#838383" opacity="1.000000" stroke="none" 
	d="
M482.258606,161.838074 
	C482.197296,167.382111 482.643494,172.589249 481.835327,177.593826 
	C480.361420,186.720947 474.027161,191.605865 464.156769,191.976318 
	C459.694031,192.143814 455.219818,192.004730 450.318817,192.004730 
	C450.318817,196.649597 450.318817,201.906738 450.318817,207.585220 
	C447.518982,207.585220 445.127045,207.585220 442.358704,207.585220 
	C442.358704,188.054153 442.358704,168.330536 442.358704,147.407730 
	C449.639191,146.623444 457.150940,145.143753 464.657593,145.168915 
	C474.912720,145.203278 480.420868,150.846619 482.258606,161.838074 
M450.077576,170.496490 
	C450.077545,172.660995 450.077545,174.825485 450.077545,176.989990 
	C450.077545,186.744186 450.077545,186.744186 460.033630,187.296265 
	C467.048431,187.685257 471.636108,185.023422 473.183563,178.484589 
	C474.269409,173.896362 474.683685,168.944092 474.287964,164.247910 
	C472.981812,148.747681 464.145447,148.529480 453.529755,150.729904 
	C450.891541,151.276733 449.927460,152.334381 450.027893,155.015793 
	C450.208496,159.837494 450.078125,164.670853 450.077576,170.496490 
z"/>
<path fill="#838383" opacity="1.000000" stroke="none" 
	d="
M689.991943,164.003876 
	C689.991943,158.527496 689.991943,153.550003 689.991943,148.333084 
	C698.534729,145.929703 706.891541,144.092667 715.633850,145.431885 
	C723.015686,146.562698 728.273254,150.834732 729.338501,158.018509 
	C730.362305,164.923813 730.466736,172.268417 729.271545,179.122925 
	C727.785156,187.646805 721.484192,191.656479 712.055359,191.978882 
	C707.595947,192.131348 703.126953,192.005035 698.246338,192.005035 
	C698.246338,196.686615 698.246338,201.955399 698.246338,207.614197 
	C695.464722,207.614197 693.075012,207.614197 689.991943,207.614197 
	C689.991943,193.319077 689.991943,178.910919 689.991943,164.003876 
M700.587158,151.015320 
	C699.761780,151.837753 698.230713,152.649582 698.218079,153.484283 
	C698.056335,164.231323 698.111084,174.981644 698.111084,186.356964 
	C702.651184,186.672623 706.746033,187.210983 710.836121,187.176926 
	C715.852539,187.135132 719.282776,184.324677 720.891418,179.674728 
	C723.459717,172.250977 723.497864,164.696289 720.878540,157.279007 
	C719.079773,152.185196 715.172791,149.621857 709.793640,149.746094 
	C707.004333,149.810516 704.228149,150.444733 700.587158,151.015320 
z"/>
<path fill="#818181" opacity="1.000000" stroke="none" 
	d="
M818.082520,142.000427 
	C818.082520,150.086945 818.082520,157.673523 818.082520,166.527283 
	C823.998169,160.909805 829.156677,156.297089 833.971497,151.349899 
	C837.903992,147.309219 842.028442,144.499588 848.005371,146.383636 
	C842.356323,152.003311 836.657715,157.672226 831.593201,162.710358 
	C835.450684,167.152496 839.430115,170.832840 842.263855,175.248413 
	C845.180908,179.793777 846.981079,185.055878 849.293884,190.056244 
	C842.142700,192.080933 841.601685,191.782059 838.796875,185.910721 
	C836.795349,181.720749 834.894836,177.409409 832.277161,173.615967 
	C830.834656,171.525497 828.175171,169.559494 825.752014,169.063644 
	C823.361389,168.574448 818.150635,175.622177 818.091675,178.377975 
	C818.048889,180.376053 818.082703,182.375778 818.082520,184.374771 
	C818.082397,186.353287 818.082458,188.331818 818.082458,190.653168 
	C815.379578,190.653168 812.992920,190.653168 810.293030,190.653168 
	C810.293030,168.235748 810.293030,145.854156 810.293030,123.234299 
	C812.779785,123.234299 815.052429,123.234299 818.082458,123.234299 
	C818.082458,129.319214 818.082458,135.409866 818.082520,142.000427 
z"/>
<path fill="#838383" opacity="1.000000" stroke="none" 
	d="
M972.153564,134.011444 
	C970.215454,133.930313 968.757996,133.849213 967.123779,133.758270 
	C967.123779,132.177887 967.123779,130.899551 967.123779,129.304611 
	C980.442139,129.304611 993.669434,129.304611 1008.126587,129.304611 
	C1006.946777,131.761810 1006.404053,133.962173 1005.075989,135.471619 
	C999.517395,141.789413 993.723206,147.899933 987.595764,154.541092 
	C990.741699,155.118546 993.159485,155.446732 995.518982,156.016357 
	C1003.839478,158.025040 1008.729370,164.037552 1008.961426,172.407608 
	C1009.213562,181.498535 1004.714050,188.133377 996.301697,190.464035 
	C986.430542,193.198853 976.573242,191.991684 966.753845,190.099411 
	C965.828247,186.351074 967.124268,185.380707 970.542542,185.756607 
	C976.139465,186.372101 981.802429,187.100998 987.397034,186.856323 
	C995.813660,186.488266 1000.069885,181.645172 1000.296753,173.379562 
	C1000.512817,165.502991 996.411377,160.978516 987.965393,160.028381 
	C984.684021,159.659225 981.362000,159.651642 976.663269,159.406586 
	C977.855713,156.851227 978.395813,154.532578 979.775635,152.942612 
	C985.075195,146.836166 990.643982,140.963333 997.022278,134.011459 
	C988.084045,134.011459 980.359070,134.011459 972.153564,134.011444 
z"/>
<path fill="#848484" opacity="1.000000" stroke="none" 
	d="
M511.150970,192.012650 
	C497.856628,190.737259 492.583344,185.777725 491.429352,173.007675 
	C491.017517,168.450211 491.266785,163.667267 492.196472,159.191269 
	C493.788452,151.526901 498.545685,146.518799 506.662018,145.488556 
	C509.449829,145.134705 512.288574,144.951874 515.095886,145.021637 
	C526.672424,145.309387 532.768616,150.791245 534.391113,162.329361 
	C534.759399,164.947968 535.098816,167.633011 534.931641,170.254349 
	C533.907837,186.310623 527.742249,192.001022 511.150970,192.012650 
M508.398041,186.703430 
	C518.305054,188.187698 524.406250,185.171463 525.611938,177.122910 
	C526.455566,171.491440 526.366455,165.542328 525.578735,159.890518 
	C524.644653,153.189255 519.463501,149.587189 512.834534,149.698624 
	C506.214935,149.809891 501.232635,153.572876 500.308777,160.236038 
	C499.614227,165.245605 499.796722,170.435684 500.123047,175.511063 
	C500.440247,180.444183 502.905304,184.305161 508.398041,186.703430 
z"/>
<path fill="#848484" opacity="1.000000" stroke="none" 
	d="
M884.949768,169.423401 
	C878.471924,169.424347 872.480835,169.556900 866.499268,169.377060 
	C863.018127,169.272415 862.277039,170.712891 862.670471,173.903915 
	C863.675964,182.060791 867.518188,186.426605 875.721313,186.920517 
	C881.284485,187.255463 886.915344,186.465286 892.629944,186.172470 
	C894.230164,189.195267 893.305054,190.956207 889.881165,191.024643 
	C882.945007,191.163300 875.969238,191.562180 869.076355,191.015503 
	C861.888245,190.445404 857.379700,185.909256 855.441223,179.000412 
	C853.465515,171.958694 853.498047,164.854767 855.583557,157.856537 
	C858.560364,147.867065 867.162842,143.376770 879.506836,145.162338 
	C891.177795,146.850571 896.080933,154.453140 894.632446,169.423889 
	C891.625305,169.423889 888.532898,169.423889 884.949768,169.423401 
M886.367371,161.184219 
	C884.602600,152.465149 880.284729,148.840149 873.054565,150.007782 
	C866.304321,151.097916 862.507935,156.830978 863.419373,164.995392 
	C864.843384,164.995392 866.311462,164.995743 867.779602,164.995331 
	C873.243652,164.993805 878.713928,165.121323 884.165100,164.855469 
	C885.015259,164.814011 885.777832,162.979111 886.367371,161.184219 
z"/>
<path fill="#818181" opacity="1.000000" stroke="none" 
	d="
M579.081055,186.824921 
	C579.183533,194.107620 574.214172,189.748184 571.322815,191.226273 
	C571.322815,176.631821 571.322815,162.579330 571.322815,148.244568 
	C580.272644,145.953629 589.238953,143.753235 598.654175,145.750763 
	C606.484680,147.412064 610.348877,150.874359 610.728882,158.687851 
	C611.243225,169.263489 610.856812,179.882950 610.856812,190.740585 
	C608.268127,190.740585 605.997986,190.740585 602.918579,190.740585 
	C602.918579,186.419968 602.918945,182.006149 602.918457,177.592316 
	C602.917847,171.937424 603.010193,166.280548 602.891113,160.628128 
	C602.749390,153.898804 599.675781,150.323257 592.959961,149.976913 
	C588.580017,149.751038 584.143860,150.617508 579.081360,151.050339 
	C579.081360,163.178802 579.081360,174.762695 579.081055,186.824921 
z"/>
<path fill="#828282" opacity="1.000000" stroke="none" 
	d="
M636.085693,156.106964 
	C636.085693,163.755951 636.080750,170.914307 636.086792,178.072662 
	C636.093994,186.561554 638.327942,188.426529 646.743591,186.435120 
	C650.254272,185.604385 652.372253,185.736160 651.545349,190.689240 
	C649.130249,191.105484 646.573364,191.765762 643.981995,191.955292 
	C631.810913,192.845505 627.993530,189.242371 627.992920,177.077194 
	C627.992432,168.436890 627.992798,159.796585 627.992798,151.789124 
	C626.042603,148.753937 619.666504,153.138611 620.879028,146.201294 
	C623.122314,146.075546 625.227600,145.957535 627.884888,145.808578 
	C628.231323,143.430588 628.903564,141.026703 628.862183,138.635147 
	C628.778625,133.802933 630.925354,132.379593 635.916870,133.868896 
	C635.916870,137.565552 635.916870,141.464111 635.916870,145.793304 
	C640.722778,145.793304 644.980042,145.793304 649.131104,145.793304 
	C649.837463,149.013062 649.837463,149.013062 636.322632,150.932159 
	C636.247314,152.421600 636.166504,154.018967 636.085693,156.106964 
z"/>
<path fill="#858585" opacity="1.000000" stroke="none" 
	d="
M796.140259,150.493546 
	C792.466858,150.316620 789.166931,149.872803 785.854553,149.739883 
	C778.820984,149.457611 773.774719,152.588181 772.712036,159.340149 
	C771.775269,165.292282 771.765564,171.616959 772.677673,177.573273 
	C773.705933,184.288345 778.760559,187.507584 785.781555,187.244064 
	C788.745972,187.132828 791.682190,186.237366 794.645447,186.141800 
	C795.734436,186.106689 796.864685,187.350342 797.976074,188.010696 
	C797.206970,189.026733 796.467346,190.896378 795.664062,190.924149 
	C789.066406,191.152344 782.372620,191.680222 775.877197,190.827942 
	C770.513672,190.124161 766.818115,186.057800 765.038025,180.808701 
	C762.279785,172.675430 762.288635,164.448410 764.978149,156.306702 
	C766.913696,150.447159 771.066223,146.461426 777.164551,145.875732 
	C783.700806,145.248001 790.344055,145.734116 797.712952,145.734116 
	C797.200134,147.706329 796.854065,149.036926 796.140259,150.493546 
z"/>
<path fill="#828282" opacity="1.000000" stroke="none" 
	d="
M909.086121,191.003418 
	C907.745056,189.983032 906.123352,188.974625 906.109802,187.945114 
	C905.937683,174.841522 905.996338,161.734848 905.996338,147.667236 
	C914.034424,146.569427 921.943726,145.489197 929.981384,144.391449 
	C930.946167,147.881042 931.099365,149.440964 927.439453,149.771973 
	C914.072327,150.980896 914.084595,151.117447 914.084595,164.422180 
	C914.084595,173.038788 914.084656,181.655396 914.084656,190.676788 
	C912.400024,190.799011 910.976440,190.902298 909.086121,191.003418 
z"/>
<path fill="#808080" opacity="1.000000" stroke="none" 
	d="
M555.076660,168.999954 
	C555.076660,176.455536 555.076660,183.411179 555.076660,190.680374 
	C552.312317,190.680374 549.927612,190.680374 547.268799,190.680374 
	C547.268799,175.976456 547.268799,161.399216 547.268799,146.411316 
	C549.566833,146.411316 551.942932,146.411316 555.076599,146.411316 
	C555.076599,153.671555 555.076599,161.085770 555.076660,168.999954 
z"/>
<path fill="#808080" opacity="1.000000" stroke="none" 
	d="
M751.076660,178.985077 
	C751.076660,183.111053 751.076660,186.740372 751.076660,190.681488 
	C748.310120,190.681488 745.927002,190.681488 743.267578,190.681488 
	C743.267578,175.973022 743.267578,161.395172 743.267578,146.408905 
	C745.571533,146.408905 747.947937,146.408905 751.076599,146.408905 
	C751.076599,157.007309 751.076599,167.747864 751.076660,178.985077 
z"/>
<path fill="#858585" opacity="1.000000" stroke="none" 
	d="
M668.934814,168.015137 
	C662.989807,168.015137 657.534546,168.015137 651.658630,168.015137 
	C651.561646,166.359650 651.481140,164.985367 651.381592,163.286331 
	C660.158752,163.286331 668.539368,163.286331 677.362732,163.286331 
	C677.439453,164.646774 677.516907,166.020996 677.629333,168.015121 
	C674.621948,168.015121 672.023315,168.015121 668.934814,168.015137 
z"/>
<path fill="#858585" opacity="1.000000" stroke="none" 
	d="
M944.984192,168.015137 
	C940.027466,168.015137 935.565002,168.015137 930.676941,168.015137 
	C930.566589,166.387329 930.473511,165.013855 930.357178,163.297928 
	C939.133362,163.297928 947.513489,163.297928 956.345886,163.297928 
	C956.434082,164.615982 956.526001,165.990417 956.661499,168.015121 
	C952.666931,168.015121 949.072693,168.015121 944.984192,168.015137 
z"/>
<path fill="#858585" opacity="1.000000" stroke="none" 
	d="
M751.747620,132.086304 
	C750.177734,132.606155 748.915283,132.957779 747.631775,133.070938 
	C744.954773,133.307007 742.076050,132.919159 742.316895,129.622070 
	C742.412720,128.311310 745.021545,126.512283 746.744446,126.144348 
	C749.575073,125.539841 752.579773,126.032539 752.820923,130.020142 
	C752.855957,130.599045 752.318237,131.212585 751.747620,132.086304 
z"/>
<path fill="#858585" opacity="1.000000" stroke="none" 
	d="
M550.280640,126.003563 
	C552.280640,126.313728 554.167175,126.230408 555.367432,127.097244 
	C556.239624,127.727203 556.711304,130.671829 556.495422,130.775223 
	C554.427795,131.765152 552.199158,132.791138 549.967102,132.915390 
	C548.765076,132.982300 547.466553,131.314575 546.211609,130.429504 
	C547.432129,128.958725 548.652588,127.487938 550.280640,126.003563 
z"/>
<path fill="#FDFDFE" opacity="1.000000" stroke="none" 
	d="
M81.196106,124.748573 
	C111.438805,137.900894 141.299759,150.980225 171.226456,163.907379 
	C174.923599,165.504410 176.356918,167.534698 176.340179,171.740692 
	C176.167847,215.035095 176.235504,258.330444 176.236282,301.625519 
	C176.236313,303.253479 176.236267,304.881470 176.236267,307.729492 
	C171.763351,306.048462 168.086594,304.848450 164.556320,303.311890 
	C127.957222,287.382111 91.402100,271.351013 54.771751,255.493591 
	C50.572853,253.675903 48.758625,251.391144 48.780766,246.543777 
	C48.976967,203.582626 48.895256,160.620209 48.895592,117.658157 
	C48.895603,115.888504 48.895592,114.118851 48.895592,110.747368 
	C60.329468,115.716965 70.581940,120.173073 81.196106,124.748573 
z"/>
<path fill="#FDFDFE" opacity="1.000000" stroke="none" 
	d="
M197.986115,184.002670 
	C197.985916,180.503952 198.332703,177.455063 197.913147,174.515579 
	C197.045303,168.435486 199.452225,165.481873 205.198853,163.033234 
	C243.626205,146.659286 281.863098,129.838348 320.169800,113.180984 
	C321.472778,112.614395 322.860962,112.243729 324.959839,111.524666 
	C325.109039,114.298935 325.317139,116.373909 325.318054,118.448990 
	C325.336853,160.939743 325.251099,203.430862 325.440308,245.920776 
	C325.462494,250.898834 324.209351,253.534729 319.354462,255.615616 
	C280.808289,272.137299 242.407532,288.998260 203.947464,305.721252 
	C202.357559,306.412537 200.621826,306.768494 197.986130,307.577942 
	C197.986130,265.985962 197.986130,225.244003 197.986115,184.002670 
z"/>
<path fill="#FCFDFE" opacity="1.000000" stroke="none" 
	d="
M129.886292,65.859467 
	C147.906418,57.928707 165.534027,50.043213 183.311447,42.511383 
	C185.565079,41.556580 188.953003,41.640553 191.226639,42.615845 
	C228.549744,58.625946 265.779785,74.853119 303.020721,91.054504 
	C304.185333,91.561165 305.242889,92.313950 307.216034,93.450737 
	C305.477264,94.658638 304.467804,95.630745 303.263550,96.157112 
	C266.202637,112.356201 229.152679,128.581604 191.982971,144.527802 
	C189.295547,145.680740 185.286499,145.763702 182.615860,144.633514 
	C156.403351,133.540604 130.343521,122.086899 104.242577,110.730469 
	C94.322639,106.414352 84.394661,102.116196 74.502060,97.738167 
	C72.147278,96.696037 69.919838,95.366180 66.127144,93.379402 
	C88.224785,83.843124 108.882324,74.928329 129.886292,65.859467 
z"/>
<path fill="#FDFDFD" opacity="1.000000" stroke="none" 
	d="
M1046.835693,149.976624 
	C1054.922119,150.862915 1054.922607,150.862915 1054.923218,158.233231 
	C1054.923950,167.215530 1054.923584,176.197845 1054.923584,185.056961 
	C1043.055786,191.184387 1033.519165,186.686325 1031.871948,173.975983 
	C1031.266113,169.300934 1031.542603,164.324448 1032.442993,159.684601 
	C1033.836792,152.501877 1038.687622,149.484131 1046.835693,149.976624 
z"/>
<path fill="#FDFDFD" opacity="1.000000" stroke="none" 
	d="
M450.077637,169.997910 
	C450.078125,164.670853 450.208496,159.837494 450.027893,155.015793 
	C449.927460,152.334381 450.891541,151.276733 453.529755,150.729904 
	C464.145447,148.529480 472.981812,148.747681 474.287964,164.247910 
	C474.683685,168.944092 474.269409,173.896362 473.183563,178.484589 
	C471.636108,185.023422 467.048431,187.685257 460.033630,187.296265 
	C450.077545,186.744186 450.077545,186.744186 450.077545,176.989990 
	C450.077545,174.825485 450.077545,172.660995 450.077637,169.997910 
z"/>
<path fill="#FDFDFD" opacity="1.000000" stroke="none" 
	d="
M701.016602,150.918427 
	C704.228149,150.444733 707.004333,149.810516 709.793640,149.746094 
	C715.172791,149.621857 719.079773,152.185196 720.878540,157.279007 
	C723.497864,164.696289 723.459717,172.250977 720.891418,179.674728 
	C719.282776,184.324677 715.852539,187.135132 710.836121,187.176926 
	C706.746033,187.210983 702.651184,186.672623 698.111084,186.356964 
	C698.111084,174.981644 698.056335,164.231323 698.218079,153.484283 
	C698.230713,152.649582 699.761780,151.837753 701.016602,150.918427 
z"/>
<path fill="#FDFDFD" opacity="1.000000" stroke="none" 
	d="
M508.024597,186.540619 
	C502.905304,184.305161 500.440247,180.444183 500.123047,175.511063 
	C499.796722,170.435684 499.614227,165.245605 500.308777,160.236038 
	C501.232635,153.572876 506.214935,149.809891 512.834534,149.698624 
	C519.463501,149.587189 524.644653,153.189255 525.578735,159.890518 
	C526.366455,165.542328 526.455566,171.491440 525.611938,177.122910 
	C524.406250,185.171463 518.305054,188.187698 508.024597,186.540619 
z"/>
<path fill="#FDFDFD" opacity="1.000000" stroke="none" 
	d="
M886.474121,161.578873 
	C885.777832,162.979111 885.015259,164.814011 884.165100,164.855469 
	C878.713928,165.121323 873.243652,164.993805 867.779602,164.995331 
	C866.311462,164.995743 864.843384,164.995392 863.419373,164.995392 
	C862.507935,156.830978 866.304321,151.097916 873.054565,150.007782 
	C880.284729,148.840149 884.602600,152.465149 886.474121,161.578873 
z"/>
</svg>